<?xml version="1.0" encoding="utf-8"?>
<!-- Generator: Adobe Illustrator 16.0.0, SVG Export Plug-In . SVG Version: 6.00 Build 0)  -->
<!DOCTYPE svg PUBLIC "-//W3C//DTD SVG 1.0//EN" "http://www.w3.org/TR/2001/REC-SVG-20010904/DTD/svg10.dtd">
<svg version="1.0" id="Слой_1" xmlns="http://www.w3.org/2000/svg" xmlns:xlink="http://www.w3.org/1999/xlink" x="0px" y="0px"
	 width="281.3px" height="15px" viewBox="-55.58 -2.96 281.3 15" enable-background="new -55.58 -2.96 281.3 15"
	 xml:space="preserve">
<g id="Слой_x0020_1">
	<g id="_501548600">
		<path fill="#D9DADA" d="M205.41,11.57c-1.44,0.24-2.82,0.45-4.23,0.31c-1.55-0.14-2.97-0.74-4.12-1.67
			c-0.31-0.26-0.62-0.57-0.91-0.88c-0.26,0.31-0.57,0.62-0.91,0.88c-1.12,0.93-2.53,1.53-4.09,1.67c-1.44,0.14-2.8-0.07-4.26-0.31
			l0,0l0,0c-2.08-0.31-4.3-0.64-6.38,0.19c-0.79,0.33-1.7,0.03-2.15-0.67c-1,0.53-2.08,0.86-3.28,0.93
			c-0.93,0.05-1.79-0.02-2.61-0.19c-1.6-0.31-2.99-1.05-4.04-2.15l-0.05-0.07l-0.07,0.07c-1.03,1.1-2.44,1.84-4.04,2.15
			c-0.79,0.16-1.67,0.24-2.58,0.19c-1.22-0.07-2.29-0.4-3.3-0.93c-0.43,0.7-1.34,1-2.15,0.67c-2.06-0.83-4.3-0.5-6.38-0.19l0,0l0,0
			c-1.44,0.24-2.82,0.45-4.23,0.31c-1.56-0.14-2.97-0.74-4.12-1.67c-0.31-0.26-0.62-0.57-0.91-0.88c-0.26,0.31-0.57,0.62-0.91,0.88
			c-1.12,0.93-2.53,1.53-4.09,1.67c-1.44,0.14-2.8-0.07-4.26-0.31l0,0l0,0c-2.08-0.31-4.3-0.64-6.39,0.19
			c-0.79,0.33-1.7,0.03-2.15-0.67c-1,0.53-2.08,0.86-3.28,0.93c-0.93,0.05-1.79-0.02-2.61-0.19c-1.6-0.31-2.99-1.05-4.04-2.15
			l-0.05-0.07l-0.07,0.07c-1.03,1.1-2.44,1.84-4.04,2.15c-0.79,0.16-1.67,0.24-2.58,0.19c-1.22-0.07-2.29-0.4-3.3-0.93
			c-0.43,0.7-1.34,1-2.15,0.67c-2.06-0.83-4.31-0.5-6.39-0.19l0,0l0,0c-1.43,0.24-2.82,0.45-4.23,0.31
			c-1.55-0.14-2.97-0.74-4.11-1.67c-0.31-0.26-0.62-0.57-0.91-0.88c-0.26,0.31-0.57,0.62-0.91,0.88c-1.12,0.93-2.54,1.53-4.09,1.67
			c-1.43,0.14-2.8-0.07-4.26-0.31l0,0l0,0c-2.08-0.31-4.3-0.64-6.39,0.19c-0.79,0.33-1.7,0.03-2.15-0.67
			c-1,0.53-2.08,0.86-3.28,0.93c-0.93,0.05-1.79-0.02-2.61-0.19c-1.6-0.31-2.99-1.05-4.04-2.15l-0.05-0.07l-0.07,0.07
			c-1.03,1.1-2.44,1.84-4.04,2.15c-0.79,0.16-1.68,0.24-2.58,0.19c-1.22-0.07-2.3-0.4-3.3-0.93c-0.43,0.7-1.34,1-2.15,0.67
			c-2.06-0.83-4.3-0.5-6.39-0.19l0,0l0,0c-1.43,0.24-2.82,0.45-4.23,0.31c-1.55-0.14-2.97-0.74-4.11-1.67
			c-0.31-0.26-0.62-0.57-0.91-0.88c-0.26,0.31-0.57,0.62-0.91,0.88c-1.12,0.93-2.53,1.53-4.09,1.67c-1.43,0.14-2.8-0.07-4.26-0.31
			l0,0l0,0c-2.08-0.31-4.31-0.64-6.38,0.19c-0.79,0.33-1.7,0.03-2.15-0.67c-1,0.53-2.08,0.86-3.28,0.93
			C7.51,12.07,6.65,12,5.83,11.84c-1.6-0.31-2.99-1.05-4.04-2.15L1.74,9.61L1.67,9.68c-1.03,1.1-2.44,1.84-4.04,2.15
			c-0.79,0.16-1.67,0.24-2.58,0.19c-1.22-0.07-2.3-0.4-3.3-0.93c-0.43,0.7-1.34,1-2.15,0.67c-2.06-0.83-4.31-0.5-6.39-0.19l0,0l0,0
			c-1.43,0.24-2.82,0.45-4.23,0.31c-1.55-0.14-2.97-0.74-4.11-1.67c-0.31-0.26-0.62-0.57-0.91-0.88c-0.26,0.31-0.57,0.62-0.91,0.88
			c-1.12,0.93-2.54,1.53-4.09,1.67c-1.43,0.14-2.8-0.07-4.26-0.31l0,0l0,0c-2.08-0.31-4.31-0.64-6.38,0.19
			c-0.79,0.33-1.7,0.03-2.15-0.67c-1,0.53-2.08,0.86-3.28,0.93c-0.93,0.05-1.79-0.02-2.61-0.19c-1.6-0.31-2.99-1.05-4.04-2.15
			c-1.05-1.12-1.72-2.63-1.82-4.45c-0.02-0.76,0.02-1.58,0.21-2.44c0-0.07,0.02-0.14,0.05-0.21c0.43-1.46,1.27-2.73,2.39-3.66
			c1.15-0.93,2.56-1.53,4.11-1.67c1.44-0.12,2.8,0.1,4.23,0.31h0.02l0,0c2.06,0.31,4.3,0.67,6.39-0.19c0.77-0.31,1.6-0.05,2.08,0.6
			c1-0.43,2.1-0.74,3.35-0.88c0.65-0.07,1.27-0.05,1.86,0.02c0.65,0.1,1.27,0.26,1.82,0.48c1.22,0.5,2.22,1.17,3.01,2.03
			c0.79-0.86,1.82-1.53,3.04-2.03c0.55-0.21,1.15-0.38,1.82-0.48l0,0l0,0c0.6-0.07,1.22-0.09,1.84-0.02
			c1.24,0.14,2.37,0.46,3.37,0.88c0.45-0.64,1.32-0.91,2.08-0.6c2.08,0.86,4.3,0.5,6.38,0.19l0,0l0,0c1.46-0.22,2.82-0.43,4.23-0.31
			c1.58,0.14,2.99,0.74,4.11,1.67C1.17-0.79,1.46-0.51,1.74-0.2c0.26-0.31,0.57-0.6,0.89-0.88c1.15-0.93,2.56-1.53,4.11-1.67
			c1.43-0.12,2.8,0.1,4.23,0.31H11l0,0c2.06,0.31,4.3,0.67,6.39-0.19c0.76-0.31,1.6-0.05,2.08,0.6c1-0.43,2.1-0.74,3.35-0.88
			c0.65-0.07,1.27-0.05,1.86,0.02c0.65,0.1,1.27,0.26,1.82,0.48c1.22,0.5,2.22,1.17,3.01,2.03c0.79-0.86,1.82-1.53,3.04-2.03
			c0.55-0.21,1.15-0.38,1.82-0.48l0,0l0,0c0.6-0.07,1.22-0.09,1.84-0.02c1.24,0.14,2.37,0.46,3.37,0.88
			c0.45-0.64,1.31-0.91,2.08-0.6c2.08,0.86,4.3,0.5,6.38,0.19l0,0l0,0c1.46-0.22,2.82-0.43,4.23-0.31c1.58,0.14,2.99,0.74,4.11,1.67
			c0.33,0.29,0.62,0.57,0.91,0.88c0.26-0.31,0.57-0.6,0.88-0.88c1.15-0.93,2.56-1.53,4.11-1.67c1.44-0.12,2.8,0.1,4.23,0.31h0.02
			l0,0c2.06,0.31,4.3,0.67,6.39-0.19c0.77-0.31,1.6-0.05,2.08,0.6c1-0.43,2.1-0.74,3.35-0.88c0.64-0.07,1.27-0.05,1.87,0.02
			c0.65,0.1,1.27,0.26,1.82,0.48c1.22,0.5,2.22,1.17,3.01,2.03c0.79-0.86,1.82-1.53,3.04-2.03c0.55-0.21,1.15-0.38,1.82-0.48l0,0
			l0,0c0.6-0.07,1.22-0.09,1.84-0.02c1.24,0.14,2.37,0.46,3.37,0.88c0.45-0.64,1.31-0.91,2.08-0.6c2.08,0.86,4.3,0.5,6.38,0.19l0,0
			l0,0c1.46-0.22,2.82-0.43,4.23-0.31c1.58,0.14,2.99,0.74,4.12,1.67c0.33,0.29,0.62,0.57,0.91,0.88c0.26-0.31,0.57-0.6,0.88-0.88
			c1.15-0.93,2.56-1.53,4.12-1.67c1.43-0.12,2.8,0.1,4.23,0.31h0.02l0,0c2.06,0.31,4.3,0.67,6.38-0.19c0.77-0.31,1.6-0.05,2.08,0.6
			c1-0.43,2.1-0.74,3.35-0.88c0.65-0.07,1.27-0.05,1.87,0.02c0.65,0.1,1.27,0.26,1.82,0.48c1.22,0.5,2.22,1.17,3.01,2.03
			c0.79-0.86,1.82-1.53,3.04-2.03c0.55-0.21,1.15-0.38,1.82-0.48l0,0l0,0c0.6-0.07,1.22-0.09,1.84-0.02
			c1.24,0.14,2.37,0.46,3.37,0.88c0.45-0.64,1.31-0.91,2.08-0.6c2.08,0.86,4.3,0.5,6.39,0.19l0,0l0,0c1.46-0.22,2.82-0.43,4.23-0.31
			c1.58,0.14,2.99,0.74,4.11,1.67c0.34,0.29,0.62,0.57,0.91,0.88c0.26-0.31,0.57-0.6,0.88-0.88c1.15-0.93,2.56-1.53,4.12-1.67
			c1.43-0.12,2.8,0.1,4.23,0.31h0.02l0,0c2.06,0.31,4.3,0.67,6.38-0.19c0.76-0.31,1.6-0.05,2.08,0.6c1.01-0.43,2.1-0.74,3.35-0.88
			c0.65-0.07,1.27-0.05,1.87,0.02c0.64,0.1,1.27,0.26,1.82,0.48c1.22,0.5,2.22,1.17,3.01,2.03c0.79-0.86,1.82-1.53,3.04-2.03
			c0.55-0.21,1.15-0.38,1.82-0.48l0,0l0,0c0.6-0.07,1.22-0.09,1.84-0.02c1.24,0.14,2.37,0.46,3.37,0.88
			c0.46-0.64,1.31-0.91,2.08-0.6c2.08,0.86,4.3,0.5,6.38,0.19l0,0l0,0c1.46-0.22,2.82-0.43,4.23-0.31c1.58,0.14,2.99,0.74,4.11,1.67
			c1.12,0.93,1.99,2.2,2.41,3.66c0.03,0.07,0.03,0.14,0.05,0.21c0.17,0.86,0.24,1.67,0.19,2.44c-0.09,1.82-0.74,3.33-1.82,4.45
			c-1.03,1.1-2.44,1.84-4.04,2.15c-0.79,0.16-1.68,0.24-2.58,0.19c-1.22-0.07-2.3-0.4-3.3-0.93c-0.43,0.7-1.34,1-2.15,0.67
			C209.74,10.93,207.49,11.26,205.41,11.57L205.41,11.57L205.41,11.57z M-37.26,5.28c0.36,0,0.72,0.05,1.1,0.1
			c0-0.43,0.07-0.89,0.19-1.29C-36.4,4.47-36.83,4.87-37.26,5.28z M-43.24,3.82c-0.14-0.02-0.29-0.05-0.45-0.07
			c0,0.21-0.02,0.41-0.05,0.62C-43.57,4.18-43.41,4.01-43.24,3.82z M-15.91,5.38c0.38-0.05,0.74-0.1,1.1-0.1
			c-0.43-0.41-0.89-0.81-1.32-1.19C-16,4.49-15.91,4.95-15.91,5.38z M-8.37,3.75C-8.54,3.77-8.68,3.8-8.85,3.82
			c0.17,0.19,0.36,0.38,0.52,0.55C-8.35,4.18-8.37,3.97-8.37,3.75z M18.29,5.28c0.36,0,0.72,0.05,1.1,0.1
			c0-0.43,0.07-0.89,0.19-1.29C19.15,4.47,18.72,4.87,18.29,5.28z M12.31,3.82c-0.14-0.02-0.29-0.05-0.46-0.07
			c0,0.21-0.02,0.41-0.05,0.62C11.98,4.18,12.15,4.01,12.31,3.82z M39.65,5.38c0.38-0.05,0.74-0.1,1.1-0.1
			c-0.43-0.41-0.88-0.81-1.32-1.19C39.55,4.49,39.65,4.95,39.65,5.38z M47.18,3.75c-0.17,0.02-0.31,0.05-0.48,0.07
			c0.17,0.19,0.36,0.38,0.53,0.55C47.2,4.18,47.18,3.97,47.18,3.75z M73.84,5.28c0.36,0,0.72,0.05,1.1,0.1
			c0-0.43,0.07-0.89,0.19-1.29C74.7,4.47,74.27,4.87,73.84,5.28z M67.86,3.82c-0.14-0.02-0.29-0.05-0.45-0.07
			c0,0.21-0.02,0.41-0.05,0.62C67.53,4.18,67.7,4.01,67.86,3.82z M95.2,5.38c0.38-0.05,0.74-0.1,1.1-0.1
			c-0.43-0.41-0.88-0.81-1.31-1.19C95.1,4.49,95.2,4.95,95.2,5.38z M102.73,3.75c-0.17,0.02-0.31,0.05-0.48,0.07
			c0.17,0.19,0.36,0.38,0.53,0.55C102.75,4.18,102.73,3.97,102.73,3.75z M129.39,5.28c0.36,0,0.72,0.05,1.1,0.1
			c0-0.43,0.07-0.89,0.19-1.29C130.25,4.47,129.82,4.87,129.39,5.28z M123.41,3.82c-0.14-0.02-0.29-0.05-0.46-0.07
			c0,0.21-0.02,0.41-0.05,0.62C123.08,4.18,123.25,4.01,123.41,3.82z M150.75,5.38c0.38-0.05,0.74-0.1,1.1-0.1
			c-0.43-0.41-0.88-0.81-1.31-1.19C150.65,4.49,150.75,4.95,150.75,5.38z M158.28,3.75c-0.17,0.02-0.31,0.05-0.48,0.07
			c0.17,0.19,0.36,0.38,0.53,0.55C158.3,4.18,158.28,3.97,158.28,3.75z M184.94,5.28c0.36,0,0.71,0.05,1.1,0.1
			c0-0.43,0.07-0.89,0.19-1.29C185.8,4.47,185.37,4.87,184.94,5.28z M178.97,3.82c-0.14-0.02-0.29-0.05-0.46-0.07
			c0,0.21-0.02,0.41-0.05,0.62C178.63,4.18,178.8,4.01,178.97,3.82z M206.3,5.38c0.38-0.05,0.74-0.1,1.1-0.1
			c-0.43-0.41-0.89-0.81-1.31-1.19C206.2,4.49,206.3,4.95,206.3,5.38z M213.83,3.75c-0.17,0.02-0.31,0.05-0.48,0.07
			c0.17,0.19,0.36,0.38,0.53,0.55C213.85,4.18,213.83,3.97,213.83,3.75z"/>
		<g>
			<path fill="#FEFEFE" d="M-31.21,10.14c-3.21,0.29-7.13-1.65-11.14,0c1.39-2.13,3.9-4.04,7.39-2.58c1.87,0.76,2.1,1.48,5.5,1.13
				c-8.51,0-4.21-9.06-0.67-4.28c-1.29,0.31-1.12,3.04,0.77,2.85c3.2-0.31,2.49-5.57-1.53-6.5c-6.72-1.53-10.16,9.21-16.31,9.52
				c-4.23,0.21-7.41-2.3-6.43-7.13c0.65-2.3,2.61-3.92,4.98-4.14c3.23-0.29,7.13,1.65,11.14,0c-1.36,2.15-3.87,4.04-7.39,2.61
				c-1.84-0.79-2.08-1.51-5.5-1.12c8.54,0,4.21,9.06,0.69,4.28c1.29-0.31,1.12-3.04-0.77-2.87c-3.23,0.34-2.49,5.84,1.53,6.74
				c6.07,1.39,8.11-8.82,16.43-9.8c1.03-0.12,2.01,0.07,2.8,0.4c2.77,1.12,4.21,3.32,3.52,6.77C-26.86,8.29-28.82,9.92-31.21,10.14z
				"/>
			<path fill="#FEFEFE" d="M24.34,10.14c-3.21,0.29-7.13-1.65-11.14,0c1.39-2.13,3.9-4.04,7.39-2.58c1.87,0.76,2.11,1.48,5.5,1.13
				c-8.51,0-4.21-9.06-0.67-4.28c-1.29,0.31-1.12,3.04,0.77,2.85c3.21-0.31,2.49-5.57-1.53-6.5c-6.72-1.53-10.16,9.21-16.31,9.52
				c-4.23,0.21-7.41-2.3-6.43-7.13c0.65-2.3,2.61-3.92,4.97-4.14c3.23-0.29,7.13,1.65,11.14,0c-1.36,2.15-3.87,4.04-7.39,2.61
				C8.8,0.81,8.56,0.09,5.14,0.47c8.54,0,4.21,9.06,0.69,4.28c1.29-0.31,1.12-3.04-0.79-2.87C1.84,2.22,2.58,7.72,6.6,8.63
				c6.07,1.39,8.11-8.82,16.43-9.8c1.03-0.12,2.01,0.07,2.8,0.4C28.6,0.35,30.03,2.55,29.34,6C28.69,8.29,26.73,9.92,24.34,10.14z"
				/>
			<path fill="#FEFEFE" d="M79.89,10.14c-3.2,0.29-7.12-1.65-11.14,0c1.39-2.13,3.9-4.04,7.39-2.58c1.87,0.76,2.11,1.48,5.5,1.13
				c-8.51,0-4.21-9.06-0.67-4.28c-1.29,0.31-1.12,3.04,0.76,2.85c3.2-0.31,2.49-5.57-1.53-6.5c-6.72-1.53-10.16,9.21-16.31,9.52
				c-4.23,0.21-7.41-2.3-6.43-7.13c0.65-2.3,2.61-3.92,4.97-4.14c3.23-0.29,7.12,1.65,11.14,0c-1.36,2.15-3.87,4.04-7.39,2.61
				c-1.84-0.79-2.08-1.51-5.5-1.12c8.54,0,4.21,9.06,0.69,4.28c1.29-0.31,1.12-3.04-0.79-2.87c-3.2,0.34-2.46,5.84,1.55,6.74
				c6.07,1.39,8.11-8.82,16.43-9.8c1.03-0.12,2.01,0.07,2.8,0.4c2.78,1.12,4.21,3.32,3.52,6.77C84.24,8.29,82.28,9.92,79.89,10.14z"
				/>
			<path fill="#FEFEFE" d="M135.44,10.14c-3.21,0.29-7.13-1.65-11.14,0c1.39-2.13,3.9-4.04,7.39-2.58c1.87,0.76,2.1,1.48,5.5,1.13
				c-8.51,0-4.21-9.06-0.67-4.28c-1.29,0.31-1.12,3.04,0.77,2.85c3.21-0.31,2.49-5.57-1.53-6.5c-6.72-1.53-10.16,9.21-16.31,9.52
				c-4.23,0.21-7.41-2.3-6.43-7.13c0.65-2.3,2.61-3.92,4.98-4.14c3.23-0.29,7.13,1.65,11.14,0c-1.36,2.15-3.87,4.04-7.39,2.61
				c-1.84-0.79-2.08-1.51-5.5-1.12c8.54,0,4.21,9.06,0.7,4.28c1.29-0.31,1.12-3.04-0.79-2.87c-3.2,0.34-2.46,5.84,1.55,6.74
				c6.07,1.39,8.11-8.82,16.43-9.8c1.03-0.12,2.01,0.07,2.8,0.4c2.77,1.12,4.21,3.32,3.51,6.77
				C139.79,8.29,137.83,9.92,135.44,10.14z"/>
			<path fill="#FEFEFE" d="M190.99,10.14c-3.2,0.29-7.13-1.65-11.14,0c1.39-2.13,3.9-4.04,7.39-2.58c1.87,0.76,2.11,1.48,5.5,1.13
				c-8.51,0-4.21-9.06-0.67-4.28c-1.29,0.31-1.13,3.04,0.77,2.85c3.2-0.31,2.49-5.57-1.53-6.5c-6.72-1.53-10.16,9.21-16.31,9.52
				c-4.23,0.21-7.41-2.3-6.43-7.13c0.65-2.3,2.61-3.92,4.97-4.14c3.23-0.29,7.13,1.65,11.14,0c-1.36,2.15-3.87,4.04-7.39,2.61
				c-1.84-0.79-2.08-1.51-5.5-1.12c8.54,0,4.21,9.06,0.7,4.28c1.29-0.31,1.12-3.04-0.79-2.87c-3.21,0.34-2.46,5.84,1.55,6.74
				c6.07,1.39,8.11-8.82,16.43-9.8c1.03-0.12,2.01,0.07,2.8,0.4c2.77,1.12,4.21,3.32,3.52,6.77
				C195.34,8.29,193.38,9.92,190.99,10.14z"/>
			<path fill="#FEFEFE" d="M-20.88,10.14c3.23,0.29,7.13-1.65,11.14,0c-1.37-2.13-3.88-4.04-7.39-2.58
				c-1.84,0.76-2.08,1.48-5.5,1.13c8.54,0,4.21-9.06,0.67-4.28c1.32,0.31,1.15,3.04-0.76,2.85c-3.2-0.31-2.49-5.57,1.53-6.5
				c6.74-1.53,10.16,9.21,16.31,9.52c4.26,0.21,7.41-2.3,6.46-7.13c-0.65-2.3-2.61-3.92-5-4.14c-3.2-0.29-7.13,1.65-11.14,0
				c1.39,2.15,3.9,4.04,7.39,2.61c1.87-0.79,2.08-1.51,5.5-1.12c-8.51,0-4.21,9.06-0.67,4.28c-1.32-0.31-1.15-3.04,0.77-2.87
				c3.21,0.34,2.49,5.84-1.53,6.74c-6.1,1.39-8.11-8.82-16.43-9.8c-1.05-0.12-2.01,0.07-2.82,0.4c-2.77,1.12-4.19,3.32-3.49,6.77
				C-25.21,8.29-23.24,9.92-20.88,10.14z"/>
			<path fill="#FEFEFE" d="M34.67,10.14c3.23,0.29,7.13-1.65,11.14,0c-1.36-2.13-3.87-4.04-7.39-2.58c-1.84,0.76-2.08,1.48-5.5,1.13
				c8.54,0,4.21-9.06,0.67-4.28c1.32,0.31,1.15,3.04-0.76,2.85c-3.2-0.31-2.49-5.57,1.53-6.5c6.74-1.53,10.16,9.21,16.31,9.52
				c4.26,0.21,7.41-2.3,6.46-7.13c-0.65-2.3-2.61-3.92-5-4.14c-3.2-0.29-7.13,1.65-11.14,0c1.39,2.15,3.9,4.04,7.39,2.61
				c1.86-0.79,2.08-1.51,5.5-1.12c-8.51,0-4.21,9.06-0.67,4.28c-1.32-0.31-1.15-3.04,0.77-2.87c3.2,0.34,2.49,5.84-1.53,6.74
				c-6.1,1.39-8.11-8.82-16.43-9.8C34.96-1.29,34-1.1,33.19-0.77C30.41,0.35,29.01,2.55,29.7,6C30.34,8.29,32.3,9.92,34.67,10.14z"
				/>
			<path fill="#FEFEFE" d="M90.22,10.14c3.23,0.29,7.13-1.65,11.14,0c-1.36-2.13-3.87-4.04-7.39-2.58c-1.84,0.76-2.08,1.48-5.5,1.13
				c8.54,0,4.21-9.06,0.67-4.28c1.31,0.31,1.15,3.04-0.77,2.85c-3.2-0.31-2.49-5.57,1.53-6.5c6.75-1.53,10.16,9.21,16.31,9.52
				c4.26,0.21,7.41-2.3,6.46-7.13c-0.64-2.3-2.61-3.92-5-4.14c-3.2-0.29-7.12,1.65-11.14,0c1.39,2.15,3.9,4.04,7.39,2.61
				c1.86-0.79,2.08-1.51,5.5-1.12c-8.51,0-4.21,9.06-0.67,4.28c-1.32-0.31-1.15-3.04,0.77-2.87c3.2,0.34,2.48,5.84-1.53,6.74
				c-6.1,1.39-8.11-8.82-16.43-9.8c-1.05-0.12-2.01,0.07-2.82,0.4C85.97,0.35,84.56,2.55,85.25,6C85.89,8.29,87.85,9.92,90.22,10.14
				z"/>
			<path fill="#FEFEFE" d="M145.77,10.14c3.23,0.29,7.13-1.65,11.14,0c-1.36-2.13-3.87-4.04-7.39-2.58
				c-1.84,0.76-2.08,1.48-5.5,1.13c8.54,0,4.21-9.06,0.67-4.28c1.32,0.31,1.15,3.04-0.76,2.85c-3.21-0.31-2.49-5.57,1.53-6.5
				c6.74-1.53,10.16,9.21,16.31,9.52c4.26,0.21,7.41-2.3,6.46-7.13c-0.65-2.3-2.61-3.92-5-4.14c-3.21-0.29-7.13,1.65-11.14,0
				c1.39,2.15,3.9,4.04,7.39,2.61c1.87-0.79,2.08-1.51,5.5-1.12c-8.51,0-4.21,9.06-0.67,4.28c-1.31-0.31-1.15-3.04,0.77-2.87
				c3.21,0.34,2.49,5.84-1.53,6.74c-6.1,1.39-8.11-8.82-16.43-9.8c-1.05-0.12-2.01,0.07-2.82,0.4c-2.77,1.12-4.19,3.32-3.49,6.77
				C141.44,8.29,143.4,9.92,145.77,10.14z"/>
			<path fill="#FEFEFE" d="M201.32,10.14c3.23,0.29,7.13-1.65,11.14,0c-1.36-2.13-3.88-4.04-7.39-2.58
				c-1.84,0.76-2.08,1.48-5.5,1.13c8.54,0,4.21-9.06,0.67-4.28c1.31,0.31,1.15,3.04-0.76,2.85c-3.21-0.31-2.49-5.57,1.53-6.5
				c6.74-1.53,10.16,9.21,16.31,9.52c4.26,0.21,7.41-2.3,6.46-7.13c-0.64-2.3-2.6-3.92-5-4.14c-3.21-0.29-7.13,1.65-11.14,0
				c1.38,2.15,3.89,4.04,7.39,2.61c1.87-0.79,2.08-1.51,5.5-1.12c-8.51,0-4.21,9.06-0.67,4.28c-1.32-0.31-1.15-3.04,0.76-2.87
				c3.21,0.34,2.49,5.84-1.53,6.74c-6.1,1.39-8.11-8.82-16.43-9.8c-1.05-0.12-2.01,0.07-2.82,0.4c-2.78,1.12-4.19,3.32-3.49,6.77
				C196.99,8.29,198.96,9.92,201.32,10.14z"/>
			<path fill="#FEFEFE" d="M-31.21,10.14c-3.21,0.29-7.13-1.65-11.14,0c1.39-2.13,3.9-4.04,7.39-2.58c1.87,0.76,2.1,1.48,5.5,1.13
				c-8.51,0-4.21-9.06-0.67-4.28c-1.29,0.31-1.12,3.04,0.77,2.85c3.2-0.31,2.49-5.57-1.53-6.5c-6.72-1.53-10.16,9.21-16.31,9.52
				c-4.23,0.21-7.41-2.3-6.43-7.13c0.65-2.3,2.61-3.92,4.98-4.14c3.23-0.29,7.13,1.65,11.14,0c-1.36,2.15-3.87,4.04-7.39,2.61
				c-1.84-0.79-2.08-1.51-5.5-1.12c8.54,0,4.21,9.06,0.69,4.28c1.29-0.31,1.12-3.04-0.77-2.87c-3.23,0.34-2.49,5.84,1.53,6.74
				c6.07,1.39,8.11-8.82,16.43-9.8c1.03-0.12,2.01,0.07,2.8,0.4c2.77,1.12,4.21,3.32,3.52,6.77C-26.86,8.29-28.82,9.92-31.21,10.14z
				"/>
			<path fill="#FEFEFE" d="M24.34,10.14c-3.21,0.29-7.13-1.65-11.14,0c1.39-2.13,3.9-4.04,7.39-2.58c1.87,0.76,2.11,1.48,5.5,1.13
				c-8.51,0-4.21-9.06-0.67-4.28c-1.29,0.31-1.12,3.04,0.77,2.85c3.21-0.31,2.49-5.57-1.53-6.5c-6.72-1.53-10.16,9.21-16.31,9.52
				c-4.23,0.21-7.41-2.3-6.43-7.13c0.65-2.3,2.61-3.92,4.97-4.14c3.23-0.29,7.13,1.65,11.14,0c-1.36,2.15-3.87,4.04-7.39,2.61
				C8.8,0.81,8.56,0.09,5.14,0.47c8.54,0,4.21,9.06,0.69,4.28c1.29-0.31,1.12-3.04-0.79-2.87C1.84,2.22,2.58,7.72,6.6,8.63
				c6.07,1.39,8.11-8.82,16.43-9.8c1.03-0.12,2.01,0.07,2.8,0.4C28.6,0.35,30.03,2.55,29.34,6C28.69,8.29,26.73,9.92,24.34,10.14z"
				/>
			<path fill="#FEFEFE" d="M79.89,10.14c-3.2,0.29-7.12-1.65-11.14,0c1.39-2.13,3.9-4.04,7.39-2.58c1.87,0.76,2.11,1.48,5.5,1.13
				c-8.51,0-4.21-9.06-0.67-4.28c-1.29,0.31-1.12,3.04,0.76,2.85c3.2-0.31,2.49-5.57-1.53-6.5c-6.72-1.53-10.16,9.21-16.31,9.52
				c-4.23,0.21-7.41-2.3-6.43-7.13c0.65-2.3,2.61-3.92,4.97-4.14c3.23-0.29,7.12,1.65,11.14,0c-1.36,2.15-3.87,4.04-7.39,2.61
				c-1.84-0.79-2.08-1.51-5.5-1.12c8.54,0,4.21,9.06,0.69,4.28c1.29-0.31,1.12-3.04-0.79-2.87c-3.2,0.34-2.46,5.84,1.55,6.74
				c6.07,1.39,8.11-8.82,16.43-9.8c1.03-0.12,2.01,0.07,2.8,0.4c2.78,1.12,4.21,3.32,3.52,6.77C84.24,8.29,82.28,9.92,79.89,10.14z"
				/>
			<path fill="#FEFEFE" d="M135.44,10.14c-3.21,0.29-7.13-1.65-11.14,0c1.39-2.13,3.9-4.04,7.39-2.58c1.87,0.76,2.1,1.48,5.5,1.13
				c-8.51,0-4.21-9.06-0.67-4.28c-1.29,0.31-1.12,3.04,0.77,2.85c3.21-0.31,2.49-5.57-1.53-6.5c-6.72-1.53-10.16,9.21-16.31,9.52
				c-4.23,0.21-7.41-2.3-6.43-7.13c0.65-2.3,2.61-3.92,4.98-4.14c3.23-0.29,7.13,1.65,11.14,0c-1.36,2.15-3.87,4.04-7.39,2.61
				c-1.84-0.79-2.08-1.51-5.5-1.12c8.54,0,4.21,9.06,0.7,4.28c1.29-0.31,1.12-3.04-0.79-2.87c-3.2,0.34-2.46,5.84,1.55,6.74
				c6.07,1.39,8.11-8.82,16.43-9.8c1.03-0.12,2.01,0.07,2.8,0.4c2.77,1.12,4.21,3.32,3.51,6.77
				C139.79,8.29,137.83,9.92,135.44,10.14z"/>
			<path fill="#FEFEFE" d="M190.99,10.14c-3.2,0.29-7.13-1.65-11.14,0c1.39-2.13,3.9-4.04,7.39-2.58c1.87,0.76,2.11,1.48,5.5,1.13
				c-8.51,0-4.21-9.06-0.67-4.28c-1.29,0.31-1.13,3.04,0.77,2.85c3.2-0.31,2.49-5.57-1.53-6.5c-6.72-1.53-10.16,9.21-16.31,9.52
				c-4.23,0.21-7.41-2.3-6.43-7.13c0.65-2.3,2.61-3.92,4.97-4.14c3.23-0.29,7.13,1.65,11.14,0c-1.36,2.15-3.87,4.04-7.39,2.61
				c-1.84-0.79-2.08-1.51-5.5-1.12c8.54,0,4.21,9.06,0.7,4.28c1.29-0.31,1.12-3.04-0.79-2.87c-3.21,0.34-2.46,5.84,1.55,6.74
				c6.07,1.39,8.11-8.82,16.43-9.8c1.03-0.12,2.01,0.07,2.8,0.4c2.77,1.12,4.21,3.32,3.52,6.77
				C195.34,8.29,193.38,9.92,190.99,10.14z"/>
			<path fill="#FEFEFE" d="M-20.88,10.14c3.23,0.29,7.13-1.65,11.14,0c-1.37-2.13-3.88-4.04-7.39-2.58
				c-1.84,0.76-2.08,1.48-5.5,1.13c8.54,0,4.21-9.06,0.67-4.28c1.32,0.31,1.15,3.04-0.76,2.85c-3.2-0.31-2.49-5.57,1.53-6.5
				c6.74-1.53,10.16,9.21,16.31,9.52c4.26,0.21,7.41-2.3,6.46-7.13c-0.65-2.3-2.61-3.92-5-4.14c-3.2-0.29-7.13,1.65-11.14,0
				c1.39,2.15,3.9,4.04,7.39,2.61c1.87-0.79,2.08-1.51,5.5-1.12c-8.51,0-4.21,9.06-0.67,4.28c-1.32-0.31-1.15-3.04,0.77-2.87
				c3.21,0.34,2.49,5.84-1.53,6.74c-6.1,1.39-8.11-8.82-16.43-9.8c-1.05-0.12-2.01,0.07-2.82,0.4c-2.77,1.12-4.19,3.32-3.49,6.77
				C-25.21,8.29-23.24,9.92-20.88,10.14z"/>
			<path fill="#FEFEFE" d="M34.67,10.14c3.23,0.29,7.13-1.65,11.14,0c-1.36-2.13-3.87-4.04-7.39-2.58c-1.84,0.76-2.08,1.48-5.5,1.13
				c8.54,0,4.21-9.06,0.67-4.28c1.32,0.31,1.15,3.04-0.76,2.85c-3.2-0.31-2.49-5.57,1.53-6.5c6.74-1.53,10.16,9.21,16.31,9.52
				c4.26,0.21,7.41-2.3,6.46-7.13c-0.65-2.3-2.61-3.92-5-4.14c-3.2-0.29-7.13,1.65-11.14,0c1.39,2.15,3.9,4.04,7.39,2.61
				c1.86-0.79,2.08-1.51,5.5-1.12c-8.51,0-4.21,9.06-0.67,4.28c-1.32-0.31-1.15-3.04,0.77-2.87c3.2,0.34,2.49,5.84-1.53,6.74
				c-6.1,1.39-8.11-8.82-16.43-9.8C34.96-1.29,34-1.1,33.19-0.77C30.41,0.35,29.01,2.55,29.7,6C30.34,8.29,32.3,9.92,34.67,10.14z"
				/>
			<path fill="#FEFEFE" d="M90.22,10.14c3.23,0.29,7.13-1.65,11.14,0c-1.36-2.13-3.87-4.04-7.39-2.58c-1.84,0.76-2.08,1.48-5.5,1.13
				c8.54,0,4.21-9.06,0.67-4.28c1.31,0.31,1.15,3.04-0.77,2.85c-3.2-0.31-2.49-5.57,1.53-6.5c6.75-1.53,10.16,9.21,16.31,9.52
				c4.26,0.21,7.41-2.3,6.46-7.13c-0.64-2.3-2.61-3.92-5-4.14c-3.2-0.29-7.12,1.65-11.14,0c1.39,2.15,3.9,4.04,7.39,2.61
				c1.86-0.79,2.08-1.51,5.5-1.12c-8.51,0-4.21,9.06-0.67,4.28c-1.32-0.31-1.15-3.04,0.77-2.87c3.2,0.34,2.48,5.84-1.53,6.74
				c-6.1,1.39-8.11-8.82-16.43-9.8c-1.05-0.12-2.01,0.07-2.82,0.4C85.97,0.35,84.56,2.55,85.25,6C85.89,8.29,87.85,9.92,90.22,10.14
				z"/>
			<path fill="#FEFEFE" d="M145.77,10.14c3.23,0.29,7.13-1.65,11.14,0c-1.36-2.13-3.87-4.04-7.39-2.58
				c-1.84,0.76-2.08,1.48-5.5,1.13c8.54,0,4.21-9.06,0.67-4.28c1.32,0.31,1.15,3.04-0.76,2.85c-3.21-0.31-2.49-5.57,1.53-6.5
				c6.74-1.53,10.16,9.21,16.31,9.52c4.26,0.21,7.41-2.3,6.46-7.13c-0.65-2.3-2.61-3.92-5-4.14c-3.21-0.29-7.13,1.65-11.14,0
				c1.39,2.15,3.9,4.04,7.39,2.61c1.87-0.79,2.08-1.51,5.5-1.12c-8.51,0-4.21,9.06-0.67,4.28c-1.31-0.31-1.15-3.04,0.77-2.87
				c3.21,0.34,2.49,5.84-1.53,6.74c-6.1,1.39-8.11-8.82-16.43-9.8c-1.05-0.12-2.01,0.07-2.82,0.4c-2.77,1.12-4.19,3.32-3.49,6.77
				C141.44,8.29,143.4,9.92,145.77,10.14z"/>
			<path fill="#FEFEFE" d="M201.32,10.14c3.23,0.29,7.13-1.65,11.14,0c-1.36-2.13-3.88-4.04-7.39-2.58
				c-1.84,0.76-2.08,1.48-5.5,1.13c8.54,0,4.21-9.06,0.67-4.28c1.31,0.31,1.15,3.04-0.76,2.85c-3.21-0.31-2.49-5.57,1.53-6.5
				c6.74-1.53,10.16,9.21,16.31,9.52c4.26,0.21,7.41-2.3,6.46-7.13c-0.64-2.3-2.6-3.92-5-4.14c-3.21-0.29-7.13,1.65-11.14,0
				c1.38,2.15,3.89,4.04,7.39,2.61c1.87-0.79,2.08-1.51,5.5-1.12c-8.51,0-4.21,9.06-0.67,4.28c-1.32-0.31-1.15-3.04,0.76-2.87
				c3.21,0.34,2.49,5.84-1.53,6.74c-6.1,1.39-8.11-8.82-16.43-9.8c-1.05-0.12-2.01,0.07-2.82,0.4c-2.78,1.12-4.19,3.32-3.49,6.77
				C196.99,8.29,198.96,9.92,201.32,10.14z"/>
		</g>
	</g>
</g>
</svg>
